<?xml version="1.0" encoding="utf-8"?>
<!DOCTYPE svg PUBLIC "-//W3C//DTD SVG 1.1//EN" "http://www.w3.org/Graphics/SVG/1.1/DTD/svg11.dtd">
  <svg version="1.0" xmlns="http://www.w3.org/2000/svg"  width="1344.000000pt" height="1344.000000pt" viewBox="0 0 1344.000000 1344.000000"  preserveAspectRatio="xMidYMid meet">  <g transform="translate(0.000000,1344.000000) scale(0.100000,-0.100000)" fill="#615c5c" stroke="none"> <path d="M6465 13124 c-27 -2 -117 -8 -200 -14 -82 -6 -184 -17 -225 -25 -83 -15 -206 -34 -290 -44 -30 -4 -71 -12 -90 -19 -34 -11 -101 -30 -210 -58 -30 -8 -77 -21 -105 -29 -27 -8 -66 -19 -85 -24 -36 -9 -131 -43 -230 -81 -30 -12 -71 -26 -90 -32 -19 -5 -39 -13 -45 -18 -5 -4 -23 -10 -40 -14 -31 -8 -123 -51 -365 -171 -189 -94 -511 -289 -625 -380 -49 -39 -130 -102 -180 -140 -49 -38 -110 -87 -135 -109 -190 -171 -243 -219 -305 -281 -39 -38 -95 -99 -124 -135 -30 -36 -85 -98 -122 -137 -82 -87 -373 -474 -417 -556 -18 -32 -67 -118 -110 -190 -43 -73 -100 -177 -127 -232 -110 -230 -163 -343 -179 -385 -10 -25 -24 -60 -32 -78 -8 -18 -14 -41 -14 -50 0 -10 -4 -22 -9 -28 -5 -5 -14 -25 -19 -44 -6 -19 -20 -60 -32 -90 -40 -103 -85 -262 -120 -420 -13 -60 -31 -134 -41 -167 -6 -17 -14 -65 -19 -105 -16 -129 -31 -222 -42 -268 -5 -25 -14 -112 -18 -195 -5 -82 -14 -242 -20 -355 -9 -138 -11 -385 -8 -754 l5 -549 -64 -66 c-62 -63 -80 -87 -163 -211 -66 -98 -137 -260 -175 -397 -41 -146 -48 -202 -52 -398 -4 -206 3 -298 32 -420 9 -38 21 -90 26 -115 5 -25 15 -58 23 -75 7 -16 28 -68 47 -115 112 -283 357 -574 621 -739 93 -58 150 -90 198 -110 14 -5 46 -19 72 -30 26 -12 51 -21 55 -21 4 -1 20 -11 34 -23 19 -16 37 -54 63 -132 20 -60 41 -119 46 -130 5 -11 20 -54 33 -95 26 -80 130 -343 147 -372 5 -10 10 -23 10 -29 0 -11 99 -212 202 -409 24 -47 69 -123 99 -170 52 -79 121 -190 144 -229 32 -54 271 -377 358 -483 45 -55 94 -116 109 -135 47 -61 280 -306 349 -367 24 -22 71 -64 105 -95 94 -86 191 -171 263 -230 170 -137 218 -175 270 -210 31 -21 92 -62 136 -93 139 -95 393 -242 586 -336 102 -51 191 -92 197 -92 6 0 28 -7 49 -16 91 -40 170 -69 238 -89 33 -10 78 -24 100 -30 126 -40 214 -60 317 -74 37 -5 72 -12 78 -16 11 -7 279 -28 340 -28 87 1 330 23 353 32 16 6 42 11 59 11 46 0 188 33 323 75 22 6 67 20 100 30 56 16 133 44 180 65 11 5 62 25 113 45 51 19 101 40 110 45 9 5 78 38 153 74 235 111 633 366 833 534 51 43 107 89 126 105 90 71 237 206 380 347 205 203 363 388 605 710 139 185 198 271 221 320 4 8 19 33 33 55 38 60 49 78 57 95 4 8 19 33 33 55 14 22 44 76 66 120 103 201 179 352 186 370 4 11 17 41 28 67 12 26 21 49 21 52 0 4 46 109 71 161 14 31 70 186 79 221 4 18 11 37 15 44 4 7 11 26 15 44 30 117 80 205 118 206 8 0 26 7 40 14 15 8 57 28 93 44 36 17 96 50 133 76 37 25 70 46 73 46 14 0 156 122 244 210 115 115 181 199 244 310 14 25 34 59 45 75 11 17 24 40 30 53 15 35 61 134 75 162 22 46 66 221 85 340 21 125 24 368 6 450 -9 41 -16 86 -16 100 0 14 -7 45 -15 70 -8 25 -31 94 -50 153 -71 218 -157 365 -328 560 l-60 68 9 112 c23 286 3 1576 -25 1667 -6 19 -11 49 -11 67 0 18 -6 68 -14 110 -8 43 -20 112 -26 153 -16 105 -23 137 -65 295 -20 77 -41 160 -46 185 -5 25 -18 70 -30 100 -11 30 -31 87 -44 125 -13 39 -33 95 -45 125 -11 30 -30 82 -41 114 -11 33 -47 114 -79 180 -32 67 -83 173 -113 236 -30 63 -71 139 -91 169 -20 29 -36 55 -36 57 0 1 -12 22 -27 46 -16 24 -33 52 -40 63 -77 128 -111 179 -195 295 -54 74 -118 162 -142 195 -24 34 -82 101 -129 150 -46 50 -115 126 -153 170 -38 44 -103 111 -144 150 -41 38 -77 72 -80 75 -55 59 -259 229 -410 342 -164 122 -247 177 -455 301 -11 7 -39 24 -62 39 -46 29 -420 214 -498 246 -27 11 -90 35 -140 52 -49 18 -99 36 -110 41 -46 20 -204 71 -292 95 -29 8 -79 22 -110 30 -32 9 -83 23 -113 31 -30 8 -70 20 -89 25 -19 6 -60 14 -90 18 -131 18 -219 32 -261 41 -123 28 -722 57 -905 43z m-320 -3040 c201 -18 396 -63 520 -119 17 -7 47 -21 68 -30 70 -30 252 -162 308 -221 69 -75 167 -222 197 -294 13 -30 27 -64 32 -75 45 -105 84 -324 91 -510 2 -78 -21 -291 -37 -337 -7 -22 -14 -53 -14 -67 0 -15 -4 -31 -9 -36 -5 -6 -23 -43 -40 -84 -56 -132 -124 -232 -239 -348 -59 -60 -125 -123 -147 -140 -86 -65 -174 -120 -252 -158 -88 -43 -102 -58 -78 -85 8 -9 15 -20 15 -25 0 -6 70 -129 100 -175 6 -8 16 -26 22 -40 12 -24 78 -138 98 -170 5 -8 21 -36 35 -62 14 -26 50 -88 80 -138 30 -50 55 -93 55 -95 0 -3 27 -50 60 -106 33 -55 60 -103 60 -105 0 -4 112 -197 130 -224 6 -8 14 -24 19 -35 5 -12 34 -63 65 -113 31 -51 56 -95 56 -98 0 -4 22 -43 49 -88 84 -138 91 -151 97 -166 16 -35 87 -150 99 -160 10 -8 16 -4 27 17 8 15 81 139 164 276 82 136 154 255 159 265 27 47 82 137 97 161 10 14 21 33 25 41 3 8 18 33 32 55 32 49 31 48 115 187 38 62 76 121 84 131 14 15 43 17 334 17 224 0 318 -3 318 -11 0 -6 -47 -81 -104 -167 -56 -87 -192 -292 -301 -457 -109 -165 -247 -373 -306 -463 -60 -90 -109 -165 -109 -168 0 -3 -5 -10 -10 -17 -16 -19 -154 -229 -184 -280 -23 -39 -26 -49 -15 -69 7 -13 15 -25 18 -28 3 -3 48 -68 100 -145 52 -77 198 -295 325 -483 127 -189 236 -351 241 -360 6 -9 22 -33 38 -53 15 -20 27 -40 27 -44 0 -4 12 -24 28 -44 15 -20 32 -44 37 -53 32 -54 251 -374 257 -376 4 -2 8 -10 8 -18 0 -11 -55 -14 -320 -16 -177 -2 -328 0 -338 3 -9 3 -23 18 -32 32 -28 47 -195 319 -212 346 -10 14 -22 35 -28 46 -5 11 -46 76 -89 145 -44 69 -112 179 -152 245 -40 66 -82 134 -94 150 -12 17 -25 37 -29 45 -7 16 -18 34 -57 95 -14 22 -29 48 -32 59 -7 18 -8 18 -28 0 -12 -10 -66 -93 -121 -184 -55 -91 -136 -221 -179 -290 -43 -69 -84 -134 -89 -145 -6 -11 -60 -99 -120 -195 -60 -96 -133 -214 -162 -262 l-53 -88 -327 0 c-279 0 -328 2 -328 14 0 8 4 17 10 21 5 3 38 49 73 103 240 365 400 607 686 1037 l327 490 -109 180 c-59 99 -111 187 -115 195 -3 8 -18 33 -33 55 -15 22 -35 56 -46 75 -10 19 -31 53 -45 76 -14 23 -35 56 -45 75 -10 19 -31 53 -46 77 -15 23 -37 59 -48 80 -11 20 -29 51 -40 67 -10 17 -23 39 -29 50 -6 11 -19 34 -30 50 -11 17 -25 42 -31 58 -6 15 -14 27 -19 27 -4 0 -10 8 -14 18 -8 24 -34 69 -356 605 -191 319 -292 477 -305 481 -27 8 -954 7 -982 0 l-23 -6 0 -879 c0 -775 -2 -879 -15 -879 -8 0 -134 0 -280 0 -146 0 -272 0 -280 0 -13 0 -15 248 -15 2168 0 1193 3 2172 7 2175 3 4 360 7 792 7 630 0 819 -3 956 -16z"/> <path d="M4980 8765 l0 -816 458 5 c444 4 610 13 682 34 19 6 64 18 100 27 79 21 198 76 265 124 135 96 272 269 286 361 4 25 12 63 18 85 17 63 14 342 -4 401 -8 27 -15 60 -15 73 0 13 -13 46 -30 73 -16 26 -30 51 -30 54 0 11 -64 88 -115 139 -72 73 -127 113 -213 157 -145 75 -278 88 -929 95 l-473 4 0 -816z"/> </g> </svg> 